/* XPM */
static char *_3013417322630092429n[] = {
/* columns rows colors chars-per-pixel */
"64 64 247 2 ",
"   c black",
".  c #01030A",
"X  c #020313",
"o  c #020B15",
"O  c #01051D",
"+  c #000C1C",
"@  c #010626",
"#  c #011324",
"$  c #010837",
"%  c #011735",
"&  c #01223B",
"*  c #010A42",
"=  c #00074D",
"-  c #010C4C",
";  c #01174B",
":  c #020B56",
">  c #021753",
",  c #022441",
"<  c #01264E",
"1  c #022B58",
"2  c #020E65",
"3  c #001060",
"4  c #001861",
"5  c #01156D",
"6  c #011B6B",
"7  c #020D74",
"8  c #021375",
"9  c #022462",
"0  c #05306A",
"q  c #012275",
"w  c #032976",
"e  c #033578",
"r  c #03406D",
"t  c #03427B",
"y  c #010F81",
"u  c #021684",
"i  c #001F84",
"p  c #031998",
"a  c #042481",
"s  c #042D85",
"d  c #012B8E",
"f  c #073B8C",
"g  c #02229D",
"h  c #033A94",
"j  c #04359A",
"k  c #033D9D",
"l  c #0116AC",
"z  c #0219BB",
"x  c #022AAA",
"c  c #023DA3",
"v  c #023BAF",
"b  c #0432B2",
"n  c #024A88",
"m  c #01449E",
"M  c #035195",
"N  c #0742AC",
"B  c #154EAF",
"V  c #0256A6",
"C  c #0241BA",
"Z  c #184FBF",
"A  c #0354B9",
"S  c #1953B8",
"D  c #0964A5",
"F  c #1465A6",
"G  c #0565BC",
"H  c #0119C9",
"J  c #031FD4",
"K  c #0425C6",
"L  c #0339C6",
"P  c #0231D3",
"I  c #0B3BD5",
"U  c #0333DD",
"Y  c #011EE4",
"T  c #042CE2",
"R  c #0331E6",
"E  c #0331EB",
"W  c #0239EF",
"Q  c #1139ED",
"!  c #0333F4",
"~  c #023CF7",
"^  c #0833F8",
"/  c #054CC2",
"(  c #0547C8",
")  c #0155C1",
"_  c #0D51C4",
"`  c #0651C9",
"'  c #0149D5",
"]  c #0352D3",
"[  c #0D56D2",
"{  c #025FDB",
"}  c #1750DD",
"|  c #0961C4",
" . c #0272C4",
".. c #0667DF",
"X. c #0276DC",
"o. c #1E7FDF",
"O. c #2272CD",
"+. c #2861D5",
"@. c #387ADD",
"#. c #0646E1",
"$. c #054CE4",
"%. c #0542E8",
"&. c #0449ED",
"*. c #0D4DEE",
"=. c #194AED",
"-. c #0A50E0",
";. c #065EE2",
":. c #0A52EB",
">. c #055CEC",
",. c #0F5AEB",
"<. c #1558E8",
"1. c #0C43F3",
"2. c #064CF4",
"3. c #0B4EF4",
"4. c #0F45FB",
"5. c #024BFB",
"6. c #0B4BFB",
"7. c #1249F6",
"8. c #0857F8",
"9. c #145CF4",
"0. c #1852FA",
"q. c #125CF9",
"w. c #1A5EFB",
"e. c #265EE8",
"r. c #235AF4",
"t. c #0B6CE5",
"y. c #0467EB",
"u. c #0F63EE",
"i. c #046DED",
"p. c #1D67E5",
"a. c #1F6FE7",
"s. c #1560ED",
"d. c #0375E7",
"f. c #0279E5",
"g. c #0173EE",
"h. c #0D71EF",
"j. c #167AEA",
"k. c #0363F4",
"l. c #0A62F4",
"z. c #046CF6",
"x. c #0B6FF1",
"c. c #0264F9",
"v. c #0A62F9",
"b. c #026AFA",
"n. c #0A6BF9",
"m. c #1367F2",
"M. c #1363F9",
"N. c #1B63FA",
"B. c #156CFA",
"V. c #1C6BFC",
"C. c #0471F7",
"Z. c #0974F3",
"A. c #047DF3",
"S. c #0276FC",
"D. c #0A73FB",
"F. c #047BFB",
"G. c #0B79FB",
"H. c #137BF6",
"J. c #1C7AF1",
"K. c #1374FB",
"L. c #1D73FA",
"P. c #137FFA",
"I. c #197AFB",
"U. c #286AE4",
"Y. c #2366EF",
"T. c #2E62EE",
"R. c #2A6BEA",
"E. c #3464E2",
"W. c #3865E5",
"Q. c #3A6EE3",
"!. c #3462E9",
"~. c #3C6BEC",
"^. c #3477EC",
"/. c #2461F7",
"(. c #2369F3",
"). c #2663FC",
"_. c #2A63FB",
"`. c #206EFB",
"'. c #2C69F9",
"]. c #386AF8",
"[. c #2777FA",
"{. c #3A73FB",
"}. c #4576E5",
"|. c #4763FA",
" X c #4277FF",
".X c #5E7DF9",
"XX c #0480DF",
"oX c #1A87DD",
"OX c #0386E9",
"+X c #048DF1",
"@X c #0181F9",
"#X c #0B85FA",
"$X c #0B88FA",
"%X c #1885FB",
"&X c #0F92FA",
"*X c #1594FB",
"=X c #2485ED",
"-X c #2885FB",
";X c #3685FA",
":X c #2794F9",
">X c #3090FE",
",X c #1EA4FE",
"<X c #28A4FE",
"1X c #3AA6FB",
"2X c #4C86D9",
"3X c #5B83DD",
"4X c #6185DE",
"5X c #638BDC",
"6X c #6B8FDA",
"7X c #6D91DC",
"8X c #7B9FDB",
"9X c #4980E3",
"0X c #5584E2",
"qX c #5F85E6",
"wX c #5289E6",
"eX c #5D8DE1",
"rX c #578BEC",
"tX c #5D8DFE",
"yX c #4695FB",
"uX c #6789E2",
"iX c #6B97E5",
"pX c #7294E3",
"aX c #7E9BE4",
"sX c #729EE8",
"dX c #6C92F2",
"fX c #46A0FC",
"gX c #79A2E5",
"hX c #9AB3DE",
"jX c #85A2E3",
"kX c #8EABE3",
"lX c #80A0EA",
"zX c #8BA4EA",
"xX c #88AFEA",
"cX c #92AAE6",
"vX c #9CACE5",
"bX c #93ADEA",
"nX c #9CB6ED",
"mX c #A5BAE9",
"MX c #ADC5E7",
"NX c #B8C8E4",
"BX c #B2C4EA",
"VX c #BAC5EC",
"CX c #BDC9EE",
"ZX c #B0C3F2",
"AX c #C2D2ED",
"SX c #CBDFF1",
"DX c None",
/* pixels */
"DXDXDXDXDXDXDXDXDXDXDXDXDXDXDXDXDXDXDXDXDXDXDXDXDXDXDXDXDXDXDXDXDXDXDXDXDXDXDXDXDXDXDXDXDXDXDXDXDXDXDXDXDXDXDXDXDXDXDXDXDXDXDXDX",
"DXDXDXDXDXDXDXDXDXDXDXDXDXDXDXDXDXDXDXDXDXDXDXDXDXDXDXDXDXDXDXDXDXDXDXDXDXDXDXDXDXDXDXDXDXDXDXDXDXDXDXDXDXDXDXDXDXDXDXDXDXDXDXDX",
"DXDXDXDXDXDXDXDXDXDXDXDXDXDXDXDXDXDXDXDXDXDXDXDXDXDXDXDXDXDXDXDXDXDXDXDXDXDXDXDXDXDXDXDXDXDXDXDXDXDXDXDXDXDXDXDXDXDXDXDXDXDXDXDX",
"DXDXDXDXDXDXDXDXDXDXDXDXDXDXDXDXDXDXDXDXDXDXDXDXDXDXDXDXDXDXsX0X3XjXDXDXDXDXDXDXDXDXDXDXDXDXDXDXDXDXDXDXDXDXDXDXDXDXDXDXDXDXDXDX",
"DXDXDXDXDXDXDXDXDXDXDXDXDXDXDXDXDXDXDXDXDXDXDXDXDXDXDXAX9Xs.#.P E ! 1.W.BXDXDXDXDXDXDXDXDXDXDXDXDXDXDXDXDXDXDXDXDXDXDXDXDXDXDXDX",
"DXDXDXDXDXDXDXDXDXDXDXDXDXDXDXDXDXDXDXDXDXDXDXDXDXDXbX(.3.;.j s k ] k.k.l.7XDXDXDXDXDXDXDXDXDXDXDXDXDXDXDXDXDXDXDXDXDXDXDXDXDXDX",
"DXDXDXDXDXDXDXDXDXDXDXDXDXDXDXDXDXDXDXDXDXDXDXDXDX6X(.n.z.) 6 O + < m A f.z.5XDXDXDXDXDXDXDXDXDXDXDXDXDXDXDXDXDXDXDXDXDXDXDXDXDX",
"DXDXDXDXDXDXDXDXDXDXDXDXDXDXDXDXDXDXDXDXDXDXDXDXkXM.s.t.d.v -       X * c A.z.7XDXDXDXDXDXDXDXDXDXDXDXDXDXDXDXDXDXDXDXDXDXDXDXDX",
"DXDXDXDXDXDXDXDXDXDXDXDXDXDXDXDXDXDXDXDXDXDXDXMX9.<.S / ` u .         . q { @Xx.hXDXDXDXDXDXDXDXDXDXDXDXDXDXDXDXDXDXDXDXDXDXDXDX",
"DXDXDXDXDXDXDXDXDXDXDXDXDXDXDXDXDXDXDXDXDXDXDXU.H.O.b x 5 @             $ C C.@Xp.DXDXDXDXDXDXDXDXDXDXDXDXDXDXDXDXDXDXDXDXDXDXDX",
"DXDXDXDXDXDXDXDXDXDXDXDXDXDXDXDXDXDXDXDXDXDXgXK.1X_ p 5 @           .   X > ( S.F.2XDXDXDXDXDXDXDXDXDXDXDXDXDXDXDXDXDXDXDXDXDXDX",
"DXDXDXDXDXDXDXDXDXDXDXDXDXDXDXDXDXDXDXDXDXDX<.-X+.g > X                   . 1 g.F.Z.NXDXDXDXDXDXDXDXDXDXDXDXDXDXDXDXDXDXDXDXDXDX",
"DXDXDXDXDXDXDXDXDXDXDXDXDXDXDXDXDXDXDXDXDXqXB.;X% . .                   . . + M F.S.}.DXDXDXDXDXDXDXDXDXDXDXDXDXDXDXDXDXDXDXDXDX",
"DXDXDXDXDXDXDXDXDXDXDXDXDXDXDXDXDXDXDXDXDXm.-XH.; .                         . o G %XY.DXDXDXDXDXDXDXDXDXDXDXDXDXDXDXDXDXDXDXDXDX",
"DXDXDXDXDXDXDXDXDXDXDXDXDXDXDXDXDXDXDXDXwXP.-XA.h .                             t x.;X7XDXDXDXDXDXDXDXDXDXDXDXDXDXDXDXDXDXDXDXDX",
"DXDXDXDXDXDXDXDXDXDXDXDXDXDXDXDXDXDXDXDXh.K.:.] j .                             # .._.}.DXDXDXDXDXDXDXDXDXDXDXDXDXDXDXDXDXDXDXDX",
"DXDXDXDXDXDXDXDXDXDXDXDXDXDXDXDXDXDXDXbX#XI.K l %   .                           . D q.].DXDXDXDXDXDXDXDXDXDXDXDXDXDXDXDXDXDXDXDX",
"DXDXDXDXDXDXDXDXDXDXDXDXDXDXDXDXDXDXDXwX*X9.H 8 .                               . n #X{.jXDXDXDXDXDXDXDXDXDXDXDXDXDXDXDXDXDXDXDX",
"DXDXDXDXDXDXDXDXDXDXDXDXDXDXDXDXDXDXDXa.*X~ J 2                                 . r OX'.}.DXDXDXDXDXDXDXDXDXDXDXDXDXDXDXDXDXDXDX",
"DXDXDXDXDXDXDXDXDXDXDXDXDXDXDXDXDXDXDXJ.%XW z :                                   , XX).].VXDXDXDXDXDXDXDXDXDXDXDXDXDXDXDXDXDXDX",
"DXDXDXDXDXDXDXDXDXDXDXDXDXDXDXDXDXDXDX-Xb.! p @   .                               %  .%X].nXDXDXDXDXDXDXDXDXDXDXDXDXDXDXDXDXDXDX",
"DXDXDXDXDXDXDXDXDXDXDXDXDXDXDXDXDXDXlX[.8.K 7 X .                                 o n $X{.gXDXDXDXDXDXDXDXDXDXDXDXDXDXDXDXDXDXDX",
"DXDXDXDXDXDXDXDXDXDXDXDXDXDXDXDXDXDX9X{.8.3 2 X .                                   9 8.yX}.DXDXDXDXDXDXDXDXDXDXDXDXDXDXDXDXDXDX",
"DXDXDXDXDXDXDXDXDXDXDXDXDXDXDXDXDXDX^.-X%.$ : X                                   . u &.1XR.DXDXDXDXDXDXDXDXDXDXDXDXDXDXDXDXDXDX",
"DXDXDXDXDXDXDXDXDXDXDXDXDXDXDXDXDXDX[.-XP @ $                                       7 U <X[.DXDXDXDXDXDXDXDXDXDXDXDXDXDXDXDXDXDX",
"DXDXDXDXDXDXDXDXDXDXDXDXDXDXDXDXDXDX%X:XT - .                                       $ z %Xq.DXDXDXDXDXDXDXDXDXDXDXDXDXDXDXDXDXDX",
"DXDXDXDXDXDXDXDXDXDXDXDXDXDXDXDXDXDX;X*XE -                                         . 7 u.q.mXDXDXDXDXDXDXDXDXDXDXDXDXDXDXDXDXDX",
"DXDXDXDXDXDXDXDXDXDXDXDXDXDXDXDXDXmXfX*XU @                                           : *.q.vXDXDXDXDXDXDXDXDXDXDXDXDXDXDXDXDXDX",
"DXDXDXDXDXDXDXDXDXDXDXDXDXDXDXDXDXxXfX&XL X                                           : 2.9.bXDXDXDXDXDXDXDXDXDXDXDXDXDXDXDXDXDX",
"DXDXDXDXDXDXDXDXDXDXDXDXDXDXDXDXDXgX;X%Xd X                                         . 7 5.6.pXDXDXDXDXDXDXDXDXDXDXDXDXDXDXDXDXDX",
"DXDXDXDXDXDXDXDXDXDXDXDXDXDXDXDXDXsX[.$Xe .                                           8 8.w.5XDXDXDXDXDXDXDXDXDXDXDXDXDXDXDXDXDX",
"DXDXDXDXDXDXDXDXDXDXDXDXDXDXDXDXDXiXK.$Xn .                                           > c.[.sXDXDXDXDXDXDXDXDXDXDXDXDXDXDXDXDXDX",
"DXDXDXDXDXDXDXDXDXDXDXDXDXDXDXDXDXeXK.$Xn                                             @ >.[.pXDXDXDXDXDXDXDXDXDXDXDXDXDXDXDXDXDX",
"DXDXDXDXDXDXDXDXDXDXDXDXDXDXDXDXDXeXI.$Xn .                                           % y.[.uXDXDXDXDXDXDXDXDXDXDXDXDXDXDXDXDXDX",
"DXDXDXDXDXDXDXDXDXDXDXDXDXDXDXDXDXiXV.#X .#                                         . 1 X.q.pXDXDXDXDXDXDXDXDXDXDXDXDXDXDXDXDXDX",
"DXDXDXDXDXDXDXDXDXDXDXDXDXDXDXDXDXlXN.G.OX& .                                       . % M M.lXDXDXDXDXDXDXDXDXDXDXDXDXDXDXDXDXDX",
"DXDXDXDXDXDXDXDXDXDXDXDXDXDXDXDXDXbX0.G.+X,                                           # 0 N.cXDXDXDXDXDXDXDXDXDXDXDXDXDXDXDXDXDX",
"DXDXDXDXDXDXDXDXDXDXDXDXDXDXDXDXDXmX4.n.+Xe                                           + f r.nXDXDXDXDXDXDXDXDXDXDXDXDXDXDXDXDXDX",
"DXDXDXDXDXDXDXDXDXDXDXDXDXDXDXDXDXDX^ 8.@Xf                                         . # B _.ZXDXDXDXDXDXDXDXDXDXDXDXDXDXDXDXDXDX",
"DXDXDXDXDXDXDXDXDXDXDXDXDXDXDXDXDXDXQ 5.b.4                                         X % Z ].DXDXDXDXDXDXDXDXDXDXDXDXDXDXDXDXDXDX",
"DXDXDXDXDXDXDXDXDXDXDXDXDXDXDXDXDXDXW.6.k.2                                         X ; } ].DXDXDXDXDXDXDXDXDXDXDXDXDXDXDXDXDXDX",
"DXDXDXDXDXDXDXDXDXDXDXDXDXDXDXDXDXDXpX4.c.u                                         . w =.~.DXDXDXDXDXDXDXDXDXDXDXDXDXDXDXDXDXDX",
"DXDXDXDXDXDXDXDXDXDXDXDXDXDXDXDXDXDXzX8.G.x   .                                       j 7.dXDXDXDXDXDXDXDXDXDXDXDXDXDXDXDXDXDXDX",
"DXDXDXDXDXDXDXDXDXDXDXDXDXDXDXDXDXDXZX8.$X$.$ .                                 . X : L 7.nXDXDXDXDXDXDXDXDXDXDXDXDXDXDXDXDXDXDX",
"DXDXDXDXDXDXDXDXDXDXDXDXDXDXDXDXDXDXDX,.#Xb.i X                                 @ : H 8.r.DXDXDXDXDXDXDXDXDXDXDXDXDXDXDXDXDXDXDX",
"DXDXDXDXDXDXDXDXDXDXDXDXDXDXDXDXDXDXDXU.I.n.' O                                 $ y Y /.T.DXDXDXDXDXDXDXDXDXDXDXDXDXDXDXDXDXDXDX",
"DXDXDXDXDXDXDXDXDXDXDXDXDXDXDXDXDXDXDXiXK.`.$.X                                 * l T  X!.DXDXDXDXDXDXDXDXDXDXDXDXDXDXDXDXDXDXDX",
"DXDXDXDXDXDXDXDXDXDXDXDXDXDXDXDXDXDXDXDXv.[.-.o                                 = H e._.4XDXDXDXDXDXDXDXDXDXDXDXDXDXDXDXDXDXDXDX",
"DXDXDXDXDXDXDXDXDXDXDXDXDXDXDXDXDXDXDXDXr.L.l.9                               . 2 R yX=.DXDXDXDXDXDXDXDXDXDXDXDXDXDXDXDXDXDXDXDX",
"DXDXDXDXDXDXDXDXDXDXDXDXDXDXDXDXDXDXDXDXgXM.M.' O                               p [.[.uXDXDXDXDXDXDXDXDXDXDXDXDXDXDXDXDXDXDXDXDX",
"DXDXDXDXDXDXDXDXDXDXDXDXDXDXDXDXDXDXDXDXDXR.V.b.p . .                       . * I >X7.DXDXDXDXDXDXDXDXDXDXDXDXDXDXDXDXDXDXDXDXDX",
"DXDXDXDXDXDXDXDXDXDXDXDXDXDXDXDXDXDXDXDXDXrX[.Z.L $                         O p ;X-Xe.DXDXDXDXDXDXDXDXDXDXDXDXDXDXDXDXDXDXDXDXDX",
"DXDXDXDXDXDXDXDXDXDXDXDXDXDXDXDXDXDXDXDXDXmXB.J.( 3                       O a <.:X8.pXDXDXDXDXDXDXDXDXDXDXDXDXDXDXDXDXDXDXDXDXDX",
"DXDXDXDXDXDXDXDXDXDXDXDXDXDXDXDXDXDXDXDXDXDX}.I.| p @                   O > [ %X%XE.DXDXDXDXDXDXDXDXDXDXDXDXDXDXDXDXDXDXDXDXDXDX",
"DXDXDXDXDXDXDXDXDXDXDXDXDXDXDXDXDXDXDXDXDXDXDX=X-XN p $               @ 6 h oX,Xl.CXDXDXDXDXDXDXDXDXDXDXDXDXDXDXDXDXDXDXDXDXDXDX",
"DXDXDXDXDXDXDXDXDXDXDXDXDXDXDXDXDXDXDXDXDXDXDXSXJ.=XL K 8 @       . % e M D =Xl.uXDXDXDXDXDXDXDXDXDXDXDXDXDXDXDXDXDXDXDXDXDXDXDX",
"DXDXDXDXDXDXDXDXDXDXDXDXDXDXDXDXDXDXDXDXDXDXDXDXiXD.-X[.v.] t % @ 9 c V F @.8.uXDXDXDXDXDXDXDXDXDXDXDXDXDXDXDXDXDXDXDXDXDXDXDXDX",
"DXDXDXDXDXDXDXDXDXDXDXDXDXDXDXDXDXDXDXDXDXDXDXDXDX@.N..XtX%XF.| h N | o.[.8.uXDXDXDXDXDXDXDXDXDXDXDXDXDXDXDXDXDXDXDXDXDXDXDXDXDX",
"DXDXDXDXDXDXDXDXDXDXDXDXDXDXDXDXDXDXDXDXDXDXDXDXDXDX7Xr.|.{.K.b.i.j.L.8.3.pXDXDXDXDXDXDXDXDXDXDXDXDXDXDXDXDXDXDXDXDXDXDXDXDXDXDX",
"DXDXDXDXDXDXDXDXDXDXDXDXDXDXDXDXDXDXDXDXDXDXDXDXDXDXDXDX}.:.5.5.8.5.*.Q.CXDXDXDXDXDXDXDXDXDXDXDXDXDXDXDXDXDXDXDXDXDXDXDXDXDXDXDX",
"DXDXDXDXDXDXDXDXDXDXDXDXDXDXDXDXDXDXDXDXDXDXDXDXDXDXDXDXDXDXaXqX3X8XDXDXDXDXDXDXDXDXDXDXDXDXDXDXDXDXDXDXDXDXDXDXDXDXDXDXDXDXDXDX",
"DXDXDXDXDXDXDXDXDXDXDXDXDXDXDXDXDXDXDXDXDXDXDXDXDXDXDXDXDXDXDXDXDXDXDXDXDXDXDXDXDXDXDXDXDXDXDXDXDXDXDXDXDXDXDXDXDXDXDXDXDXDXDXDX",
"DXDXDXDXDXDXDXDXDXDXDXDXDXDXDXDXDXDXDXDXDXDXDXDXDXDXDXDXDXDXDXDXDXDXDXDXDXDXDXDXDXDXDXDXDXDXDXDXDXDXDXDXDXDXDXDXDXDXDXDXDXDXDXDX",
"DXDXDXDXDXDXDXDXDXDXDXDXDXDXDXDXDXDXDXDXDXDXDXDXDXDXDXDXDXDXDXDXDXDXDXDXDXDXDXDXDXDXDXDXDXDXDXDXDXDXDXDXDXDXDXDXDXDXDXDXDXDXDXDX"
};
