/* XPM */
static char *_0800839822117513654n[] = {
/* columns rows colors chars-per-pixel */
"64 64 238 2 ",
"   c black",
".  c #0B0502",
"X  c #0A0903",
"o  c #0F0C08",
"O  c #140502",
"+  c #120C02",
"@  c #1B0B01",
"#  c #191305",
"$  c #200F04",
"%  c #271904",
"&  c #3C1703",
"*  c #2B2106",
"=  c #252208",
"-  c #2D240A",
";  c #332303",
":  c #3A2305",
">  c #31270B",
",  c #352B08",
"<  c #3A2E0A",
"1  c #3B300B",
"2  c #401D02",
"3  c #4B1C04",
"4  c #422C07",
"5  c #542904",
"6  c #4A3706",
"7  c #473309",
"8  c #4C350B",
"9  c #453B0C",
"0  c #4A390E",
"q  c #543806",
"w  c #662907",
"e  c #673704",
"r  c #7F3506",
"t  c #54430E",
"y  c #4E4011",
"u  c #5A4C14",
"i  c #5D5014",
"p  c #764A06",
"a  c #65510A",
"s  c #664B12",
"d  c #6E5B18",
"f  c #705817",
"g  c #7A630E",
"h  c #7D6716",
"j  c #8A3D09",
"k  c #864D02",
"l  c #954C04",
"z  c #8D5306",
"x  c #8A5C05",
"c  c #84560C",
"v  c #8A5C0C",
"b  c #915603",
"n  c #9F5304",
"m  c #965F07",
"M  c #9C5C03",
"N  c #A44A0A",
"B  c #B74902",
"V  c #A25904",
"C  c #AC540A",
"Z  c #B85C02",
"A  c #8A6309",
"S  c #8B6908",
"D  c #9C6007",
"F  c #98670E",
"G  c #9C6E0B",
"H  c #99780D",
"J  c #886916",
"K  c #8C7317",
"L  c #987315",
"P  c #A56503",
"I  c #A56807",
"U  c #AB6901",
"Y  c #B76905",
"T  c #A37409",
"R  c #B37307",
"E  c #B47B04",
"W  c #B47608",
"Q  c #BA7508",
"!  c #B57B0C",
"~  c #A87B12",
"^  c #B57A10",
"/  c #C35C01",
"(  c #D05D04",
")  c #CC6305",
"_  c #CE6904",
"`  c #D76C04",
"'  c #DB6E04",
"]  c #DB6C0A",
"[  c #CC7304",
"{  c #C37906",
"}  c #CB7709",
"|  c #C57C0E",
" . c #DC7B06",
".. c #D87608",
"X. c #E06F03",
"o. c #E37002",
"O. c #EB7706",
"+. c #E37C05",
"@. c #EA7E03",
"#. c #EC7D0B",
"$. c #9B8118",
"%. c #B88409",
"&. c #A88612",
"*. c #B88A12",
"=. c #C4820D",
"-. c #CA850C",
";. c #CB8C0C",
":. c #DC8503",
">. c #D18708",
",. c #D48B0E",
"<. c #D39006",
"1. c #DB920A",
"2. c #D09A0A",
"3. c #C78410",
"4. c #DC8715",
"5. c #E38603",
"6. c #EC8407",
"7. c #E38D03",
"8. c #EB8B03",
"9. c #E38108",
"0. c #E5890B",
"q. c #E88E0D",
"w. c #F98702",
"e. c #ED9303",
"r. c #E79B07",
"t. c #E59409",
"y. c #EC9C0C",
"u. c #F89706",
"i. c #E08E10",
"p. c #EA9713",
"a. c #F99C13",
"s. c #D2A303",
"d. c #DCA41E",
"f. c #EAA405",
"g. c #EBAF07",
"h. c #EFA50C",
"j. c #EAAC0E",
"k. c #F1A606",
"l. c #FBA303",
"z. c #F5A905",
"x. c #FDAB03",
"c. c #F2A20A",
"v. c #FBA209",
"b. c #F5AB0E",
"n. c #FAAD0B",
"m. c #EBB609",
"M. c #F0B303",
"N. c #FDB202",
"B. c #F5BC04",
"V. c #FBBB04",
"C. c #F6B50B",
"Z. c #FCB20A",
"A. c #F9BC08",
"S. c #ECA116",
"D. c #E4AB13",
"F. c #E3A31C",
"G. c #ECA518",
"H. c #FEA414",
"J. c #F3A810",
"K. c #F9AC14",
"L. c #FCAD1A",
"P. c #E4B117",
"I. c #FBB113",
"U. c #F7BB12",
"Y. c #FCB218",
"T. c #FDB91B",
"R. c #DA9626",
"E. c #D28F39",
"W. c #D19E39",
"Q. c #DD9D39",
"!. c #E39E30",
"~. c #DCA226",
"^. c #D5A32D",
"/. c #DAAA2A",
"(. c #DBB02A",
"). c #CEA535",
"_. c #D9A838",
"`. c #DCB33D",
"'. c #E5A724",
"]. c #FEAE26",
"[. c #E8B62A",
"{. c #F7B520",
"}. c #FDB521",
"|. c #FBBB24",
" X c #F1B12A",
".X c #FEB92A",
"XX c #E3B334",
"oX c #F8B634",
"OX c #FAC404",
"+X c #FEC225",
"@X c #F9C42A",
"#X c #FECE2D",
"$X c #F7C835",
"%X c #F5D535",
"&X c #C89750",
"*X c #CB9B53",
"=X c #DAAA43",
"-X c #D2A44F",
";X c #DAAE4B",
":X c #D9B346",
">X c #D5AA54",
",X c #D4B15C",
"<X c #DCB458",
"1X c #CCA560",
"2X c #D5AB62",
"3X c #D3B265",
"4X c #DDBA64",
"5X c #DBB46B",
"6X c #D7BA6F",
"7X c #CEAC7B",
"8X c #D3AC73",
"9X c #D8B676",
"0X c #EEC749",
"qX c #FEC945",
"wX c #EDC95A",
"eX c #FDE74B",
"rX c #E5C376",
"tX c #FDF262",
"yX c #D8B781",
"uX c #D5B985",
"iX c #D9BF8F",
"pX c #E3BF8F",
"aX c #DBC18A",
"sX c #DDC396",
"dX c #E1C489",
"fX c #EBD18C",
"gX c #E2CA9D",
"hX c #DCC6A2",
"jX c #DECDA3",
"kX c #DFCBAF",
"lX c #DFCEB0",
"zX c #DFD1B5",
"xX c #E2CEA6",
"cX c #E2D1B2",
"vX c #E3D3B8",
"bX c #F7E2B5",
"nX c #E8DCC1",
"mX c None",
/* pixels */
"mXmXmXmXmXmXmXmXmXmXmXmXmXmXmXmXmXmXmXmXmXmXmXmXmXmXmXmXmXmXmXmXmXmXmXmXmXmXmXmXmXmXmXmXmXmXmXmXmXmXmXmXmXmXmXmXmXmXmXmXmXmXmXmX",
"mXmXmXmXmXmXmXmXmXmXmXmXmXmXmXmXmXmXmXmXmXmXmXmXmXmXmXmXmXmXmXmXmXmXmXmXmXmXmXmXmXmXmXmXmXmXmXmXmXmXmXmXmXmXmXmXmXmXmXmXmXmXmXmX",
"mXmXmXmXmXmXmXmXmXmXmXmXmXmXmXmXmXmXmXmXmXmXmXmXmXmXmXmXmXmXmXmXmXmXmXmXmXmXmXmXmXmXmXmXmXmXmXmXmXmXmXmXmXmXmXmXmXmXmXmXmXmXmXmX",
"mXmXmXmXmXmXmXmXmXmXmXmXmXmXmXmXmXmXmXmXmXmXmXmXmXmXmXmXmXcX5X,X3XiXmXmXmXmXmXmXmXmXmXmXmXmXmXmXmXmXmXmXmXmXmXmXmXmXmXmXmXmXmXmX",
"mXmXmXmXmXmXmXmXmXmXmXmXmXmXmXmXmXmXmXmXmXmXmXmXmXmXmXhX^.J.|.@XU.B.D.W.kXmXmXmXmXmXmXmXmXmXmXmXmXmXmXmXmXmXmXmXmXmXmXmXmXmXmXmX",
"mXmXmXmXmXmXmXmXmXmXmXmXmXmXmXmXmXmXmXmXmXmXmXmXmXmX2Xj.Z.,.F f m -.5.5.q.1XmXmXmXmXmXmXmXmXmXmXmXmXmXmXmXmXmXmXmXmXmXmXmXmXmXmX",
"mXmXmXmXmXmXmXmXmXmXmXmXmXmXmXmXmXmXmXmXmXmXmXmXmX).c.l.8.U 6 + O 2 z V ) 9.&XmXmXmXmXmXmXmXmXmXmXmXmXmXmXmXmXmXmXmXmXmXmXmXmXmX",
"mXmXmXmXmXmXmXmXmXmXmXmXmXmXmXmXmXmXmXmXmXmXmXmX-XA.y.5. .A *       . ; k ] @.*XmXmXmXmXmXmXmXmXmXmXmXmXmXmXmXmXmXmXmXmXmXmXmXmX",
"mXmXmXmXmXmXmXmXmXmXmXmXmXmXmXmXmXmXmXmXmXmXmX8Xz.<.E { P u           X q Y o.+.7XmXmXmXmXmXmXmXmXmXmXmXmXmXmXmXmXmXmXmXmXmXmXmX",
"mXmXmXmXmXmXmXmXmXmXmXmXmXmXmXmXmXmXmXmXmXmXvXu.e.W A A 4 o           . % b _ o.4.zXmXmXmXmXmXmXmXmXmXmXmXmXmXmXmXmXmXmXmXmXmXmX",
"mXmXmXmXmXmXmXmXmXmXmXmXmXmXmXmXmXmXmXmXmXmXQ.u.7.T a 9 X                 : D ` o.E.mXmXmXmXmXmXmXmXmXmXmXmXmXmXmXmXmXmXmXmXmXmX",
"mXmXmXmXmXmXmXmXmXmXmXmXmXmXmXmXmXmXmXmXmX9Xl.c.L s - .                   X : Z X.#.uXmXmXmXmXmXmXmXmXmXmXmXmXmXmXmXmXmXmXmXmXmX",
"mXmXmXmXmXmXmXmXmXmXmXmXmXmXmXmXmXmXmXmXmXF.x.=..                       . X . w ) @.R.mXmXmXmXmXmXmXmXmXmXmXmXmXmXmXmXmXmXmXmXmX",
"mXmXmXmXmXmXmXmXmXmXmXmXmXmXmXmXmXmXmXmX5Xl.l.} # X                         X . r +.k.sXmXmXmXmXmXmXmXmXmXmXmXmXmXmXmXmXmXmXmXmX",
"mXmXmXmXmXmXmXmXmXmXmXmXmXmXmXmXmXmXmXmXp.l.u.9.4                             . & ..f.=XmXmXmXmXmXmXmXmXmXmXmXmXmXmXmXmXmXmXmXmX",
"mXmXmXmXmXmXmXmXmXmXmXmXmXmXmXmXmXmXmX9Xu.y.Q Q 8                               . l f.D.mXmXmXmXmXmXmXmXmXmXmXmXmXmXmXmXmXmXmXmX",
"mXmXmXmXmXmXmXmXmXmXmXmXmXmXmXmXmXmXmXR.w.,.K s +                                 w 7.B.gXmXmXmXmXmXmXmXmXmXmXmXmXmXmXmXmXmXmXmX",
"mXmXmXmXmXmXmXmXmXmXmXmXmXmXmXmXmXmXmXw.u.*.J -                                   3 ( M.=XmXmXmXmXmXmXmXmXmXmXmXmXmXmXmXmXmXmXmX",
"mXmXmXmXmXmXmXmXmXmXmXmXmXmXmXmXmXmXsXu.u.*.K %                                   & B c.m.mXmXmXmXmXmXmXmXmXmXmXmXmXmXmXmXmXmXmX",
"mXmXmXmXmXmXmXmXmXmXmXmXmXmXmXmXmXmX5Xu.x.&.h #                                   @ l u.OXfXmXmXmXmXmXmXmXmXmXmXmXmXmXmXmXmXmXmX",
"mXmXmXmXmXmXmXmXmXmXmXmXmXmXmXmXmXmX=Xu.n.H i     X                               O j ' B.wXmXmXmXmXmXmXmXmXmXmXmXmXmXmXmXmXmXmX",
"mXmXmXmXmXmXmXmXmXmXmXmXmXmXmXmXmXmXD.l.g.a 0   X                                   5 / I.0XmXmXmXmXmXmXmXmXmXmXmXmXmXmXmXmXmXmX",
"mXmXmXmXmXmXmXmXmXmXmXmXmXmXmXmXmXcXC.x.%.1 ; o                                     ; } K.$XmXmXmXmXmXmXmXmXmXmXmXmXmXmXmXmXmXmX",
"mXmXmXmXmXmXmXmXmXmXmXmXmXmXmXmXmXaXN.x.S * > X                                     8 %.u.{.mXmXmXmXmXmXmXmXmXmXmXmXmXmXmXmXmXmX",
"mXmXmXmXmXmXmXmXmXmXmXmXmXmXmXmXmX5Xu.z.s # #                                       1 T p.K.bXmXmXmXmXmXmXmXmXmXmXmXmXmXmXmXmXmX",
"mXmXmXmXmXmXmXmXmXmXmXmXmXmXmXmXmX;Xu.r.J #                                         # g >.K.rXmXmXmXmXmXmXmXmXmXmXmXmXmXmXmXmXmX",
"mXmXmXmXmXmXmXmXmXmXmXmXmXmXmXmXmX:XH.t.J o                                           4 ^ L.:XmXmXmXmXmXmXmXmXmXmXmXmXmXmXmXmXmX",
"mXmXmXmXmXmXmXmXmXmXmXmXmXmXmXmXmXXXL.9.f                                             # ~ K.:XmXmXmXmXmXmXmXmXmXmXmXmXmXmXmXmXmX",
"mXmXmXmXmXmXmXmXmXmXmXmXmXmXmXmXmX'.].9.t                                             % *.b.:XmXmXmXmXmXmXmXmXmXmXmXmXmXmXmXmXmX",
"mXmXmXmXmXmXmXmXmXmXmXmXmXmXmXmXmXS..X:.% X                                           - %.Z./.mXmXmXmXmXmXmXmXmXmXmXmXmXmXmXmXmX",
"mXmXmXmXmXmXmXmXmXmXmXmXmXmXmXmXmXy.T. .%                                             * ;.x.d.mXmXmXmXmXmXmXmXmXmXmXmXmXmXmXmXmX",
"mXmXmXmXmXmXmXmXmXmXmXmXmXmXmXmXmXu.n.+.%                                             + ,.u.~.mXmXmXmXmXmXmXmXmXmXmXmXmXmXmXmXmX",
"mXmXmXmXmXmXmXmXmXmXmXmXmXmXmXmXmXc.l.' %                                               R l.'.mXmXmXmXmXmXmXmXmXmXmXmXmXmXmXmXmX",
"mXmXmXmXmXmXmXmXmXmXmXmXmXmXmXmXmXc.l.` &                                             . Y l.F.mXmXmXmXmXmXmXmXmXmXmXmXmXmXmXmXmX",
"mXmXmXmXmXmXmXmXmXmXmXmXmXmXmXmXmXh.l.O.e                                             % Z l.'.mXmXmXmXmXmXmXmXmXmXmXmXmXmXmXmXmX",
"mXmXmXmXmXmXmXmXmXmXmXmXmXmXmXmXmXD.x.w.N X                                           $ e e._.mXmXmXmXmXmXmXmXmXmXmXmXmXmXmXmXmX",
"mXmXmXmXmXmXmXmXmXmXmXmXmXmXmXmXmX'.V.w.C +                                           @ 4 f.`.mXmXmXmXmXmXmXmXmXmXmXmXmXmXmXmXmX",
"mXmXmXmXmXmXmXmXmXmXmXmXmXmXmXmXmX(.OXw./ %                                           O 5 A.:XmXmXmXmXmXmXmXmXmXmXmXmXmXmXmXmXmX",
"mXmXmXmXmXmXmXmXmXmXmXmXmXmXmXmXmX:XOXw.6.%                                           @ p OX:XmXmXmXmXmXmXmXmXmXmXmXmXmXmXmXmXmX",
"mXmXmXmXmXmXmXmXmXmXmXmXmXmXmXmXmX6XOXu.3.+                                           $ x OX4XmXmXmXmXmXmXmXmXmXmXmXmXmXmXmXmXmX",
"mXmXmXmXmXmXmXmXmXmXmXmXmXmXmXmXmXcXOXl.~ #                                         . % %.OXgXmXmXmXmXmXmXmXmXmXmXmXmXmXmXmXmXmX",
"mXmXmXmXmXmXmXmXmXmXmXmXmXmXmXmXmXmXP.x.;.#                                           5 s.OXmXmXmXmXmXmXmXmXmXmXmXmXmXmXmXmXmXmX",
"mXmXmXmXmXmXmXmXmXmXmXmXmXmXmXmXmXmXd.l.0.,   X                                       e m.P.mXmXmXmXmXmXmXmXmXmXmXmXmXmXmXmXmXmX",
"mXmXmXmXmXmXmXmXmXmXmXmXmXmXmXmXmXmX/.u.w.F   X                                   X > v OX=XmXmXmXmXmXmXmXmXmXmXmXmXmXmXmXmXmXmX",
"mXmXmXmXmXmXmXmXmXmXmXmXmXmXmXmXmXmX9Xl.u.1.-                                   X < J 3.V.aXmXmXmXmXmXmXmXmXmXmXmXmXmXmXmXmXmXmX",
"mXmXmXmXmXmXmXmXmXmXmXmXmXmXmXmXmXmXxXn.oXJ.p                                   # y $.2.OXmXmXmXmXmXmXmXmXmXmXmXmXmXmXmXmXmXmXmX",
"mXmXmXmXmXmXmXmXmXmXmXmXmXmXmXmXmXmXmXG..XT.J                                   = d $.m.m.mXmXmXmXmXmXmXmXmXmXmXmXmXmXmXmXmXmXmX",
"mXmXmXmXmXmXmXmXmXmXmXmXmXmXmXmXmXmXmX=X}.+Xc                                   % h *.B.[.mXmXmXmXmXmXmXmXmXmXmXmXmXmXmXmXmXmXmX",
"mXmXmXmXmXmXmXmXmXmXmXmXmXmXmXmXmXmXmXaXT.|.=.#                                 > $.y.OX9XmXmXmXmXmXmXmXmXmXmXmXmXmXmXmXmXmXmXmX",
"mXmXmXmXmXmXmXmXmXmXmXmXmXmXmXmXmXmXmXmXXX@XK.c                                 y ;.N.XXmXmXmXmXmXmXmXmXmXmXmXmXmXmXmXmXmXmXmXmX",
"mXmXmXmXmXmXmXmXmXmXmXmXmXmXmXmXmXmXmXmXxX+XT.1.1                             % L u.N.aXmXmXmXmXmXmXmXmXmXmXmXmXmXmXmXmXmXmXmXmX",
"mXmXmXmXmXmXmXmXmXmXmXmXmXmXmXmXmXmXmXmXmX[..Xy.J X                         + i 3.u.j.mXmXmXmXmXmXmXmXmXmXmXmXmXmXmXmXmXmXmXmXmX",
"mXmXmXmXmXmXmXmXmXmXmXmXmXmXmXmXmXmXmXmXmX<X.XF.G =                       + q T q.l._.mXmXmXmXmXmXmXmXmXmXmXmXmXmXmXmXmXmXmXmXmX",
"mXmXmXmXmXmXmXmXmXmXmXmXmXmXmXmXmXmXmXmXmXnXoXp.T t +                   X 4 ! w.w.'.mXmXmXmXmXmXmXmXmXmXmXmXmXmXmXmXmXmXmXmXmXmX",
"mXmXmXmXmXmXmXmXmXmXmXmXmXmXmXmXmXmXmXmXmXmXjX'.^ A u #               @ q v [ w.u.dXmXmXmXmXmXmXmXmXmXmXmXmXmXmXmXmXmXmXmXmXmXmX",
"mXmXmXmXmXmXmXmXmXmXmXmXmXmXmXmXmXmXmXmXmXmXmXpXp.| T J 7 X       . % p l n i.n.:XmXmXmXmXmXmXmXmXmXmXmXmXmXmXmXmXmXmXmXmXmXmXmX",
"mXmXmXmXmXmXmXmXmXmXmXmXmXmXmXmXmXmXmXmXmXmXmXmX!.u. X'.y.Y 5 $ + q M V M ! U.>XmXmXmXmXmXmXmXmXmXmXmXmXmXmXmXmXmXmXmXmXmXmXmXmX",
"mXmXmXmXmXmXmXmXmXmXmXmXmXmXmXmXmXmXmXmXmXmXmXmXvX'.#XtXqXa.q.Y p I Y :.p.C.>XmXmXmXmXmXmXmXmXmXmXmXmXmXmXmXmXmXmXmXmXmXmXmXmXmX",
"mXmXmXmXmXmXmXmXmXmXmXmXmXmXmXmXmXmXmXmXmXmXmXmXmXmX>X%XeX$XY.v.8.7.u.N.m.3XmXmXmXmXmXmXmXmXmXmXmXmXmXmXmXmXmXmXmXmXmXmXmXmXmXmX",
"mXmXmXmXmXmXmXmXmXmXmXmXmXmXmXmXmXmXmXmXmXmXmXmXmXmXmXhX_.J.V.x.N.N.m._.lXmXmXmXmXmXmXmXmXmXmXmXmXmXmXmXmXmXmXmXmXmXmXmXmXmXmXmX",
"mXmXmXmXmXmXmXmXmXmXmXmXmXmXmXmXmXmXmXmXmXmXmXmXmXmXmXmXmXcX9X,X2XyXmXmXmXmXmXmXmXmXmXmXmXmXmXmXmXmXmXmXmXmXmXmXmXmXmXmXmXmXmXmX",
"mXmXmXmXmXmXmXmXmXmXmXmXmXmXmXmXmXmXmXmXmXmXmXmXmXmXmXmXmXmXmXmXmXmXmXmXmXmXmXmXmXmXmXmXmXmXmXmXmXmXmXmXmXmXmXmXmXmXmXmXmXmXmXmX",
"mXmXmXmXmXmXmXmXmXmXmXmXmXmXmXmXmXmXmXmXmXmXmXmXmXmXmXmXmXmXmXmXmXmXmXmXmXmXmXmXmXmXmXmXmXmXmXmXmXmXmXmXmXmXmXmXmXmXmXmXmXmXmXmX",
"mXmXmXmXmXmXmXmXmXmXmXmXmXmXmXmXmXmXmXmXmXmXmXmXmXmXmXmXmXmXmXmXmXmXmXmXmXmXmXmXmXmXmXmXmXmXmXmXmXmXmXmXmXmXmXmXmXmXmXmXmXmXmXmX"
};
